<svg xmlns="http://www.w3.org/2000/svg" viewBox="0 0 4167 4167">
	<defs>
		<clipPath clipPathUnits="userSpaceOnUse" id="cp1">
			<path d="M0 0L4167 0L4167 4167L0 4167Z" />
		</clipPath>
		<linearGradient id="grd1" gradientUnits="userSpaceOnUse"  x1="2206.125" y1="1157.198" x2="2230.32" y2="991.009">
			<stop offset="0" stop-color="#ffcdab"  />
			<stop offset="0.986" stop-color="#f7ad83"  />
			<stop offset="1" stop-color="#f7ad83"  />
		</linearGradient>
		<linearGradient id="grd2" gradientUnits="userSpaceOnUse"  x1="2425.479" y1="742.335" x2="2058.662" y2="742.335">
			<stop offset="0" stop-color="#ffb387"  />
			<stop offset="1" stop-color="#ffcdab"  />
		</linearGradient>
		<linearGradient id="grd3" gradientUnits="userSpaceOnUse"  x1="2385.823" y1="735.555" x2="2354.133" y2="709.893">
			<stop offset="0" stop-color="#45260a"  />
			<stop offset="0.012" stop-color="#45260a"  />
			<stop offset="1" stop-color="#99681b"  />
		</linearGradient>
		<linearGradient id="grd4" gradientUnits="userSpaceOnUse"  x1="2253.177" y1="733.482" x2="2218.345" y2="701.499">
			<stop offset="0" stop-color="#45260a"  />
			<stop offset="0.012" stop-color="#45260a"  />
			<stop offset="1" stop-color="#99681b"  />
		</linearGradient>
		<linearGradient id="grd5" gradientUnits="userSpaceOnUse"  x1="2154.092" y1="780.425" x2="2051.336" y2="746.173">
			<stop offset="0" stop-color="#ffb387"  />
			<stop offset="1" stop-color="#ffcdab"  />
		</linearGradient>
		<linearGradient id="grd6" gradientUnits="userSpaceOnUse"  x1="2085.395" y1="761.722" x2="2031.238" y2="761.722">
			<stop offset="0" stop-color="#ffcdab"  />
			<stop offset="1" stop-color="#ffb387"  />
		</linearGradient>
		<radialGradient id="grd7" gradientUnits="userSpaceOnUse"  cx="2413.902" cy="1629.215" r="216.217">
			<stop offset="0" stop-color="#3c3796"  />
			<stop offset="0.024" stop-color="#3c3796"  />
			<stop offset="1" stop-color="#4448a6"  />
		</radialGradient>
		<radialGradient id="grd8" gradientUnits="userSpaceOnUse"  cx="2061.574" cy="1690.618" r="241.39">
			<stop offset="0" stop-color="#3c3796"  />
			<stop offset="0.024" stop-color="#3c3796"  />
			<stop offset="1" stop-color="#4448a6"  />
		</radialGradient>
		<clipPath clipPathUnits="userSpaceOnUse" id="cp2">
			<path d="M2379.48 2033.42C2388.16 2092.99 2389.3 2118.28 2393.81 2164.65C2411.62 2217.83 2612.85 2873.25 2601.18 2898.7C2599.36 2938.77 2538.4 3036.91 2525.21 3399.56C2522.36 3477.83 2517.71 3716.89 2523.72 3769.79C2503.54 3778.42 2485.95 3785.16 2456.1 3770.36C2485.86 3428.85 2370.72 3240.55 2370.72 3031.41C2370.72 2993.15 2406.83 2933.35 2475.88 2898.7C2475.97 2894.76 2133.3 2480.35 2230.08 2380.71C2157.24 2247.95 2281.32 1947.91 2379.48 2033.42Z" />
		</clipPath>
		<linearGradient id="grd9" gradientUnits="userSpaceOnUse"  x1="2357.216" y1="2124.841" x2="2308.509" y2="2128.048">
			<stop offset="0" stop-color="#173c72"  />
			<stop offset="0.967" stop-color="#204778"  />
			<stop offset="1" stop-color="#204778"  />
		</linearGradient>
		<linearGradient id="grd10" gradientUnits="userSpaceOnUse"  x1="2449.677" y1="2012.375" x2="2146.619" y2="2012.375">
			<stop offset="0" stop-color="#173c72"  />
			<stop offset="0.967" stop-color="#204778"  />
			<stop offset="1" stop-color="#204778"  />
		</linearGradient>
		<clipPath clipPathUnits="userSpaceOnUse" id="cp3">
			<path d="M1879.83 3730.89C1893.53 3578.53 1881.98 3027.67 2020.23 2911.74C2030.5 2855.44 2096.75 2497.73 2096.75 2391.9L2011.4 2369.68C2011.4 2369.68 1983.65 2772.71 1974.8 2888.08C1910.73 2925.84 1853.73 2951.5 1843.22 3034.58C1828.23 3153 1888.87 3500.33 1867.01 3741.14C1879.64 3753.43 1879.83 3740.82 1879.83 3730.89Z" />
		</clipPath>
		<clipPath clipPathUnits="userSpaceOnUse" id="cp4">
			<path d="M2131.25 2169.67C2132.62 2226.1 2127.23 2338.74 2087.07 2363.58C2053.49 2357.66 2027.98 2317.31 2024.61 2271.23C2020.99 2221.62 2052.23 2144.16 2131.25 2169.67Z" />
		</clipPath>
		<radialGradient id="grd11" gradientUnits="userSpaceOnUse"  cx="2786.021" cy="2173.51" r="1210.613">
			<stop offset="0" stop-color="#2e589a"  />
			<stop offset="1" stop-color="#5888c8"  />
		</radialGradient>
		<radialGradient id="grd12" gradientUnits="userSpaceOnUse"  cx="2240.49" cy="1925.333" r="573.86">
			<stop offset="0" stop-color="#153e86"  />
			<stop offset="0.975" stop-color="#3a69b8"  />
			<stop offset="1" stop-color="#3a69b8"  />
		</radialGradient>
		<linearGradient id="grd13" gradientUnits="userSpaceOnUse"  x1="2671.604" y1="1972.375" x2="2351.623" y2="1847.836">
			<stop offset="0" stop-color="#e7c5e0"  />
			<stop offset="0.004" stop-color="#e7c5e0"  />
			<stop offset="1" stop-color="#ff6787"  />
		</linearGradient>
		<radialGradient id="grd14" gradientUnits="userSpaceOnUse"  cx="2230.708" cy="1928.375" r="235.335">
			<stop offset="0" stop-color="#d53b4e"  />
			<stop offset="0.975" stop-color="#e54a5e"  />
			<stop offset="1" stop-color="#e54a5e"  />
		</radialGradient>
		<linearGradient id="grd15" gradientUnits="userSpaceOnUse"  x1="2421.985" y1="1593.996" x2="2167.049" y2="1494.773">
			<stop offset="0" stop-color="#e7c5e0"  />
			<stop offset="0.004" stop-color="#e7c5e0"  />
			<stop offset="1" stop-color="#ff6787"  />
		</linearGradient>
		<linearGradient id="grd16" gradientUnits="userSpaceOnUse"  x1="2586.131" y1="1532.854" x2="2442.769" y2="1477.056">
			<stop offset="0" stop-color="#e7c5e0"  />
			<stop offset="0.004" stop-color="#e7c5e0"  />
			<stop offset="1" stop-color="#ff6787"  />
		</linearGradient>
		<radialGradient id="grd17" gradientUnits="userSpaceOnUse"  cx="2406.719" cy="1584.635" r="48.142">
			<stop offset="0" stop-color="#d53b4e"  />
			<stop offset="0.975" stop-color="#e54a5e"  />
			<stop offset="1" stop-color="#e54a5e"  />
		</radialGradient>
		<linearGradient id="grd18" gradientUnits="userSpaceOnUse"  x1="1582.938" y1="676.249" x2="1834.175" y2="762.784">
			<stop offset="0" stop-color="#401a62"  />
			<stop offset="1" stop-color="#9c2c5e"  />
		</linearGradient>
		<linearGradient id="grd19" gradientUnits="userSpaceOnUse"  x1="1849.219" y1="1214.625" x2="1892.082" y2="1144.932">
			<stop offset="0" stop-color="#faa97b"  />
			<stop offset="0.06" stop-color="#faa97b"  />
			<stop offset="1" stop-color="#ac6942"  />
		</linearGradient>
		<radialGradient id="grd20" gradientUnits="userSpaceOnUse"  cx="1937.102" cy="2800.88" r="299.81">
			<stop offset="0" stop-color="#ac6942"  />
			<stop offset="0.94" stop-color="#faa97b"  />
			<stop offset="1" stop-color="#faa97b"  />
		</radialGradient>
		<linearGradient id="grd21" gradientUnits="userSpaceOnUse"  x1="1623.392" y1="936.638" x2="1957.983" y2="788.696">
			<stop offset="0" stop-color="#401a62"  />
			<stop offset="0.97" stop-color="#741f46"  />
			<stop offset="1" stop-color="#741f46"  />
		</linearGradient>
		<linearGradient id="grd22" gradientUnits="userSpaceOnUse"  x1="1909.991" y1="976.356" x2="1768.881" y2="1038.75">
			<stop offset="0" stop-color="#f5e8db"  />
			<stop offset="1" stop-color="#faa97b"  />
		</linearGradient>
		<linearGradient id="grd23" gradientUnits="userSpaceOnUse"  x1="1914" y1="975.596" x2="1769.426" y2="1039.521">
			<stop offset="0" stop-color="#62cfcd"  />
			<stop offset="1" stop-color="#061628"  />
		</linearGradient>
		<linearGradient id="grd24" gradientUnits="userSpaceOnUse"  x1="2049.18" y1="934.042" x2="1938.993" y2="982.763">
			<stop offset="0" stop-color="#ffffff"  />
			<stop offset="1" stop-color="#ffffff"  />
		</linearGradient>
		<linearGradient id="grd25" gradientUnits="userSpaceOnUse"  x1="2051.417" y1="932.591" x2="1934.662" y2="984.215">
			<stop offset="0" stop-color="#f5e8db"  />
			<stop offset="1" stop-color="#faa97b"  />
		</linearGradient>
		<linearGradient id="grd26" gradientUnits="userSpaceOnUse"  x1="2051.417" y1="932.591" x2="1934.662" y2="984.215">
			<stop offset="0" stop-color="#62cfcd"  />
			<stop offset="1" stop-color="#061628"  />
		</linearGradient>
		<linearGradient id="grd27" gradientUnits="userSpaceOnUse"  x1="2185.172" y1="876.747" x2="1788.391" y2="1026.232">
			<stop offset="0" stop-color="#ff9859"  />
			<stop offset="0.517" stop-color="#ff3944"  />
			<stop offset="1" stop-color="#ffdf72"  />
		</linearGradient>
		<linearGradient id="grd28" gradientUnits="userSpaceOnUse"  x1="2256.013" y1="843.91" x2="1779.067" y2="1023.596">
			<stop offset="0" stop-color="#ff9859"  />
			<stop offset="0.517" stop-color="#ff3944"  />
			<stop offset="1" stop-color="#ffdf72"  />
		</linearGradient>
		<linearGradient id="grd29" gradientUnits="userSpaceOnUse"  x1="2273.846" y1="788.581" x2="1751.425" y2="985.401">
			<stop offset="0" stop-color="#ff9859"  />
			<stop offset="0.517" stop-color="#ff3944"  />
			<stop offset="1" stop-color="#ffdf72"  />
		</linearGradient>
		<linearGradient id="grd30" gradientUnits="userSpaceOnUse"  x1="2097.698" y1="1975.722" x2="1732.305" y2="1975.722">
			<stop offset="0" stop-color="#ffdf72"  />
			<stop offset="0.483" stop-color="#ff9859"  />
			<stop offset="1" stop-color="#ff3944"  />
		</linearGradient>
		<linearGradient id="grd31" gradientUnits="userSpaceOnUse"  x1="1926.792" y1="1565.064" x2="1730.017" y2="1565.064">
			<stop offset="0" stop-color="#ffdf72"  />
			<stop offset="0.483" stop-color="#ff9859"  />
			<stop offset="1" stop-color="#ff3944"  />
		</linearGradient>
		<radialGradient id="grd32" gradientUnits="userSpaceOnUse"  cx="1925.832" cy="1902.381" r="51.042">
			<stop offset="0" stop-color="#ffcdab"  />
			<stop offset="1" stop-color="#fcb991"  />
		</radialGradient>
		<radialGradient id="grd33" gradientUnits="userSpaceOnUse"  cx="2707.233" cy="1925.039" r="42.083">
			<stop offset="0" stop-color="#ffb387"  />
			<stop offset="1" stop-color="#ffcdab"  />
		</radialGradient>
		<linearGradient id="grd34" gradientUnits="userSpaceOnUse"  x1="2004.71" y1="1957.502" x2="2063.695" y2="1852.019">
			<stop offset="0" stop-color="#ffcdab"  />
			<stop offset="0.986" stop-color="#f7ad83"  />
			<stop offset="1" stop-color="#f7ad83"  />
		</linearGradient>
	</defs>
	<style>
		tspan { white-space:pre }
		.shp0 { fill: #eff1f1 } 
		.shp1 { fill: url(#grd1) } 
		.shp2 { fill: url(#grd2) } 
		.shp3 { fill: #382522 } 
		.shp4 { fill: #2a1919 } 
		.shp5 { fill: #5e3c36 } 
		.shp6 { fill: #66524d } 
		.shp7 { fill: #f0fbfd } 
		.shp8 { fill: url(#grd3) } 
		.shp9 { fill: #ffffff } 
		.shp10 { fill: #2d1b11 } 
		.shp11 { fill: url(#grd4) } 
		.shp12 { fill: #301717 } 
		.shp13 { fill: #ffcfb3 } 
		.shp14 { fill: #5c3e39 } 
		.shp15 { fill: url(#grd5) } 
		.shp16 { fill: url(#grd6) } 
		.shp17 { fill: #fffcee } 
		.shp18 { fill: url(#grd7) } 
		.shp19 { fill: url(#grd8) } 
		.shp20 { fill: #432b27 } 
		.shp21 { fill: #2c2274 } 
		.shp22 { fill: #93252d } 
		.shp23 { fill: #182a7b } 
		.shp24 { fill: #4448a6 } 
		.shp25 { fill: #204878 } 
		.shp26 { fill: #1f4777 } 
		.shp27 { fill: #1e4677 } 
		.shp28 { fill: #1d4576 } 
		.shp29 { fill: #1c4475 } 
		.shp30 { fill: #1c4376 } 
		.shp31 { fill: #1b4175 } 
		.shp32 { fill: #1a4075 } 
		.shp33 { fill: #193f74 } 
		.shp34 { fill: #183e73 } 
		.shp35 { fill: #183d73 } 
		.shp36 { fill: #173c72 } 
		.shp37 { fill: url(#grd9) } 
		.shp38 { fill: url(#grd10) } 
		.shp39 { fill: #1f4678 } 
		.shp40 { fill: #1b4274 } 
		.shp41 { fill: #183d72 } 
		.shp42 { fill: url(#grd11) } 
		.shp43 { fill: url(#grd12) } 
		.shp44 { fill: url(#grd13) } 
		.shp45 { fill: url(#grd14) } 
		.shp46 { fill: url(#grd15) } 
		.shp47 { fill: url(#grd16) } 
		.shp48 { fill: url(#grd17) } 
		.shp49 { fill: url(#grd18) } 
		.shp50 { fill: url(#grd19) } 
		.shp51 { fill: #faa87b } 
		.shp52 { fill: url(#grd20) } 
		.shp53 { fill: #ffb17d } 
		.shp54 { fill: #2c3f53 } 
		.shp55 { fill: #904924 } 
		.shp56 { fill: url(#grd21) } 
		.shp57 { fill: #e2b6d9 } 
		.shp58 { fill: #061628 } 
		.shp59 { fill: url(#grd22) } 
		.shp60 { fill: url(#grd23) } 
		.shp61 { fill: url(#grd24) } 
		.shp62 { fill: url(#grd25) } 
		.shp63 { fill: url(#grd26) } 
		.shp64 { fill: url(#grd27) } 
		.shp65 { fill: url(#grd28) } 
		.shp66 { fill: url(#grd29) } 
		.shp67 { fill: url(#grd30) } 
		.shp68 { fill: url(#grd31) } 
		.shp69 { fill: url(#grd32) } 
		.shp70 { fill: url(#grd33) } 
		.shp71 { fill: url(#grd34) } 
	</style>
	<g id="Page 1" clip-path="url(#cp1)">
		<path id="Path 2" class="shp0" d="M2841.1 3779.06C2841.1 3839.1 2560.92 3887.77 2215.29 3887.77C1869.67 3887.77 1589.48 3839.1 1589.48 3779.06C1589.48 3719.03 1869.67 3670.35 2215.29 3670.35C2560.92 3670.35 2841.1 3719.03 2841.1 3779.06Z" />
		<path id="Path 3" class="shp1" d="M2143.43 1122.77L2306.49 1122.77L2290.39 818.61L2159 825.91L2143.43 1122.77Z" />
		<path id="Path 4" class="shp2" d="M2128.62 875.58C2150.75 916.55 2261.53 1002.71 2261.53 1002.71L2362.65 990.83C2362.65 990.83 2415.94 849.46 2416.85 798.78C2417.23 777.66 2397.23 716.61 2397.23 716.61L2425.48 681.39L2425.48 585.93L2324.3 481.96L2130.34 500.64L2058.66 619.35L2079.36 738.92L2103.74 749.96C2103.74 749.96 2113.42 847.41 2128.62 875.58Z" />
		<path id="Path 5" class="shp3" d="M2186.14 447.55L2236.59 418.47C2236.59 418.47 2210.15 371.71 2194.45 365.3C2164.16 352.91 2089.55 360.42 2064.54 381.53C2041.84 400.69 2030.25 495.26 2030.25 495.26L2078.17 481.96L2186.14 447.55Z" />
		<path id="Path 6" class="shp4" d="M2186.14 447.55L2236.59 418.47C2236.59 418.47 2205.72 384.63 2193.8 389.6C2184.26 393.59 2186.14 430.28 2186.14 430.28L2154.42 447.55C2154.42 447.55 2097.52 411.97 2078.19 418.47C2056.74 425.68 2030.25 495.26 2030.25 495.26L2078.17 481.96L2186.14 447.55Z" />
		<path id="Path 7" class="shp5" d="M2209.86 466.97C2209.86 466.97 2203.71 423.49 2191.79 418.47C2180.75 413.81 2151.3 426.32 2147.95 437.82C2143.11 454.38 2186.14 495.26 2186.14 495.26L2209.86 466.97Z" />
		<path id="Path 8" class="shp3" d="M2273.22 553.69C2260.01 556.02 2134.13 627.61 2112.24 724.45C2090.35 821.29 2005.06 670.9 2037.54 594.64C2070.02 518.39 2073.02 472.75 2224.96 447.79C2262.34 441.64 2482.34 537.11 2425.48 651.13C2411.58 625.86 2399.84 580.06 2394.81 574.74C2390.98 570.68 2285.66 551.5 2273.22 553.69Z" />
		<path id="Path 9" class="shp6" d="M2109.78 702.31L2114 696.92C2088.91 677.26 2062.08 639.17 2062.08 591.23L2055.23 591.23C2055.23 634.03 2075.62 675.55 2109.78 702.31ZM2171.74 420.61L2178.56 420.13L2174.68 365.06L2167.84 365.54L2171.74 420.61ZM2160.72 426.24L2166.97 423.46L2143.59 370.66L2137.33 373.43L2160.72 426.24ZM2149.47 426.37L2154.77 422.02L2115.18 373.75L2109.89 378.09L2149.47 426.37ZM2143.48 430.6L2146.96 424.7L2079.93 385.12L2076.45 391.02L2143.48 430.6ZM2353.43 551.3C2360.18 509.58 2274.48 465.11 2237.6 453.6L2235.57 460.14C2268.52 470.42 2352.57 513.7 2346.66 550.2L2353.43 551.3ZM2282.73 549.35L2288.74 546.06C2278.77 527.9 2258.99 509.91 2241.54 494.04C2225.8 479.72 2209.52 464.91 2209.52 456.87L2202.68 456.87C2202.68 467.94 2217.79 481.69 2236.94 499.1C2253.99 514.62 2273.31 532.2 2282.73 549.35ZM2298.65 547.86L2304.66 544.57C2294.28 525.68 2270.32 507.11 2249.18 490.73C2231.53 477.06 2213.29 462.93 2213.29 455.37L2206.44 455.37C2206.44 466.29 2223.45 479.46 2244.98 496.14C2265.59 512.12 2288.96 530.22 2298.65 547.86ZM2210.79 571.24L2215.24 566.04C2182.56 538.07 2170.03 496.57 2176.8 472.6L2170.21 470.74C2162.96 496.43 2174.72 540.37 2210.79 571.24ZM2143.88 645.72L2146.56 639.42C2125.74 630.5 2079.06 600.59 2095.34 515.62L2088.62 514.33C2076.67 576.67 2097.32 625.78 2143.88 645.72ZM2148.97 631.53L2151.66 625.24C2130.83 616.32 2084.16 586.41 2100.45 501.44L2093.72 500.15C2081.77 562.49 2102.42 611.6 2148.97 631.53ZM2161.94 603.39L2167.94 600.1L2167.05 598.48C2147.82 563.47 2127.95 527.27 2146.57 483.3L2140.27 480.63C2120.34 527.65 2141.97 567.03 2161.05 601.77L2161.94 603.39ZM2170.61 598.65L2176.63 595.36L2175.74 593.74C2156.51 558.73 2136.62 522.53 2155.26 478.56L2148.96 475.89C2129.03 522.91 2150.66 562.29 2169.73 597.03L2170.61 598.65ZM2429.29 623.35C2440.92 587.51 2386 527.56 2351.99 504.07L2348.09 509.7C2379.7 531.53 2433.21 589.08 2422.78 621.24L2429.29 623.35Z" />
		<path id="Path 10" class="shp7" d="M2334.38 731.84C2355.45 748.41 2381.45 746.91 2399.85 736.36C2401.79 735.25 2405.47 706.34 2399.86 704.12C2376.5 694.88 2347.92 701.45 2334.38 731.84Z" />
		<path id="Path 11" class="shp8" d="M2353.44 722.72C2353.44 736.61 2360.84 747.87 2369.98 747.87C2379.11 747.87 2386.52 736.61 2386.52 722.72C2386.52 708.84 2379.11 697.58 2369.98 697.58C2360.84 697.58 2353.44 708.84 2353.44 722.72Z" />
		<path id="Path 12" class="shp9" d="M2371.02 744.33C2380.31 744.33 2380.32 731.33 2371.02 731.33C2361.73 731.33 2361.72 744.33 2371.02 744.33ZM2378.32 733.67C2383.55 733.67 2383.55 726.37 2378.32 726.37C2373.1 726.37 2373.1 733.67 2378.32 733.67Z" />
		<path id="Path 13" class="shp10" d="M2358.44 698.92C2371.1 697.28 2379.16 696.46 2393.72 696.46C2406.06 704.61 2414.13 711.82 2418.31 716.59C2412.66 715.82 2403.09 713.44 2391.28 708.64C2381.23 710.38 2372.52 711.17 2363.24 711.63C2351.3 719.32 2341.5 723.29 2335.31 724.86C2338.81 718.73 2345.67 709.96 2358.44 698.92Z" />
		<path id="Path 14" class="shp7" d="M2202.13 728.24C2228.48 760.46 2275.03 755.46 2296.55 733.22C2286.85 692.5 2231.42 689.45 2202.13 728.24Z" />
		<path id="Path 15" class="shp11" d="M2224.51 729.92C2226.33 745.15 2237.25 756.02 2248.9 754.22C2260.54 752.41 2268.51 738.6 2266.7 723.38C2264.88 708.16 2253.96 697.28 2242.31 699.09C2230.67 700.89 2222.7 714.7 2224.51 729.92Z" />
		<path id="Path 16" class="shp9" d="M2235.79 739.1C2233.54 748.47 2248.89 751.62 2251.14 742.25C2253.39 732.89 2238.04 729.73 2235.79 739.1ZM2252.52 737.78C2258.22 738.94 2260.14 730.98 2254.44 729.81C2248.74 728.65 2246.82 736.61 2252.52 737.78Z" />
		<path id="Path 17" class="shp10" d="M2233.25 697.22C2251.55 698.64 2264.95 700.13 2285.53 703.75C2290.38 713.4 2296.59 726.81 2299.54 737.16C2293.5 731.67 2285.43 722.28 2279.12 714.08C2265.01 713.71 2250.96 712.65 2236.96 711.06C2224.24 719.66 2206.42 730.32 2191.92 735.55C2202.38 722.16 2219.7 707.56 2233.25 697.22Z" />
		<path id="Path 18" class="shp12" d="M2192.26 667.76L2253.11 661.01L2249.04 661.06L2314.28 685.88L2322.59 645.64L2252.85 642.59L2249.35 642.43L2248.79 642.64L2191.31 663.76L2192.26 667.76ZM2433.6 680.77L2419.09 653.31L2415.74 646.96L2403.95 648.45L2351.95 655.02L2360.75 695.16L2410.73 679.37L2395.58 674.51L2421.4 691.77L2433.6 680.77Z" />
		<path id="Path 19" fill-rule="evenodd" class="shp10" d="M2198.52 777.04C2197.67 776.98 2196.36 776.84 2194.75 776.33C2191.62 775.38 2186.78 772.55 2184.55 766.31C2184.32 765.54 2184.07 764.75 2183.94 763.81C2183.76 762.77 2183.76 762.39 2183.69 761.32C2183.61 759.79 2183.54 758.18 2183.46 756.51C2183.28 753.16 2183.09 749.54 2182.89 745.67C2182.51 739.17 2182.09 731.97 2181.63 724.19L2085.49 715.2L2085.06 698.09L2183.02 683.96C2184.67 681.29 2186.99 678.99 2189.78 677.33C2191.57 676.26 2193.56 675.49 2195.64 675.02C2196.76 674.79 2198.32 674.6 2198.79 674.6L2199.32 674.56L2200.21 674.54L2201.28 674.53C2207.01 674.47 2212.86 674.41 2218.81 674.35C2230.72 674.26 2243.02 674 2255.52 674.06C2268.01 674 2280.72 674.21 2293.41 674.54C2298.16 674.66 2302.85 676.49 2306.35 679.58C2309.91 682.67 2312.18 686.93 2312.88 691.59C2312.95 692.21 2313.04 692.96 2313.06 693.48L2313.06 694.67C2313.06 694.67 2313.07 695.12 2313.05 695.56L2312.96 697.34L2312.65 702.07C2312.45 705.21 2312.24 708.35 2312.03 711.47C2311.19 723.97 2310.34 736.28 2309.54 748.18C2309.38 751.16 2309.22 754.11 2309.06 757.03C2308.99 758.49 2308.91 759.95 2308.83 761.39C2308.76 762.95 2308.55 764.61 2308.03 766.12C2306.1 772.23 2300.35 776.79 2294.16 777.02C2283.22 776.98 2272.87 776.93 2263.32 776.89C2244.28 776.69 2228.41 776.63 2217.29 776.76C2206.19 776.96 2199.83 777.07 2199.83 777.07C2199.83 777.07 2199.39 777.06 2198.52 777.04ZM2217.29 773.94C2228.41 774.08 2244.28 774.02 2263.32 773.82C2272.82 773.76 2283.1 773.69 2293.99 773.62C2298.74 773.51 2303.65 770.19 2304.99 765.19C2305.31 763.95 2305.42 762.72 2305.39 761.39C2305.3 759.95 2305.23 758.49 2305.16 757.03C2304.99 754.11 2304.83 751.16 2304.68 748.18C2303.86 736.28 2303.03 723.97 2302.18 711.47C2301.98 708.35 2301.77 705.21 2301.56 702.07L2301.26 697.34L2301.2 696.16L2301.17 695.56C2301.17 695.56 2301.16 695.27 2301.15 695.12C2301.16 695.67 2301.14 695.19 2301.14 695.27L2301.02 694.09C2300.97 693.83 2300.91 693.8 2300.88 693.65C2300.43 692.08 2299.34 690.55 2298.01 689.57C2296.64 688.59 2295.02 688.15 2293.41 688.24C2280.72 688.58 2268.01 688.79 2255.52 688.73C2243.02 688.79 2230.72 688.52 2218.81 688.44C2212.86 688.38 2207.01 688.32 2201.28 688.26C2201.28 688.26 2200.21 688.24 2199.94 688.24C2199.97 688.24 2199.95 688.24 2199.91 688.24L2199.48 688.26C2198.52 688.27 2198.69 688.36 2198.42 688.35C2197.72 688.48 2197.06 688.73 2196.41 689.02C2195.15 689.66 2193.99 690.66 2193.26 691.92C2192.86 692.54 2192.58 693.22 2192.43 693.94C2192.31 694.29 2192.3 694.67 2192.23 695.04L2192.12 696.99C2191.98 699.65 2191.84 702.26 2191.71 704.82C2191.43 709.96 2191.17 714.92 2190.91 719.68C2190.35 729.2 2189.84 737.93 2189.4 745.67C2189.19 749.54 2188.99 753.16 2188.81 756.51C2188.74 758.18 2188.66 759.79 2188.58 761.32C2188.57 761.78 2188.55 762.91 2188.64 763.31C2188.66 763.83 2188.79 764.42 2188.91 764.99C2190.09 769.59 2193.65 772 2195.96 772.85C2197.17 773.31 2198.16 773.47 2198.82 773.56C2199.49 773.61 2199.83 773.64 2199.83 773.64C2199.83 773.64 2206.19 773.75 2217.29 773.94ZM2199.91 688.24L2200.02 688.24C2199.65 688.25 2199.82 688.24 2199.91 688.24ZM2355.9 777.04C2355.15 777.02 2354.02 776.91 2352.6 776.55C2349.84 775.82 2345.57 773.78 2342.77 768.82C2342.05 767.59 2341.56 766.2 2341.17 764.64C2340.99 763.79 2340.86 762.93 2340.81 762.31L2340.76 761.79L2340.72 761.13L2340.66 760.05C2340.48 757.15 2340.28 754.01 2340.08 750.65C2339.63 743.94 2339.11 736.38 2338.56 728.12C2338.06 719.86 2337.52 710.92 2336.96 701.45C2336.89 700.27 2336.82 699.08 2336.76 697.88L2336.69 696.08L2336.65 695.17L2336.67 693.87C2336.76 690.25 2338.01 686.61 2340.05 683.51C2342.14 680.42 2345.07 677.86 2348.56 676.26C2350.4 675.47 2351.96 674.91 2354.28 674.59C2355.64 674.4 2355.89 674.44 2356.63 674.38L2358.92 674.35C2369.24 674.26 2379.91 674 2390.74 674.06C2401.58 674 2412.58 674.21 2423.59 674.54C2431.94 674.65 2439.64 680.39 2442.06 688.01C2442.4 688.94 2442.61 689.91 2442.8 690.88C2442.91 691.35 2442.96 691.98 2443.02 692.52L2443.09 693.36L2443.09 693.89L2443.07 695.21L2442.99 696.23L2442.83 698.28C2442.64 701.01 2442.43 703.73 2442.22 706.44C2441.43 717.27 2440.41 727.94 2439.73 738.26C2439.44 743.42 2439.01 748.5 2438.89 753.46C2438.79 755.95 2438.85 758.41 2438.89 760.83C2439.04 763.34 2438.56 766.22 2437.35 768.56C2434.95 773.37 2430.17 776.47 2425.04 776.92C2420.43 777.03 2416.24 776.92 2412.07 776.89C2395.56 776.69 2381.8 776.63 2372.17 776.76C2362.53 776.96 2357.03 777.07 2357.03 777.07C2357.03 777.07 2356.65 777.06 2355.9 777.04ZM2372.17 773.94C2381.8 774.08 2395.56 774.02 2412.07 773.82C2416.17 773.73 2420.59 773.81 2424.87 773.65C2428.62 773.28 2432.51 770.77 2434.31 767.03C2435.29 765.15 2435.71 763.18 2435.7 760.83C2435.74 758.41 2435.79 755.95 2435.7 753.46C2435.58 748.5 2435.16 743.42 2434.86 738.26C2434.19 727.94 2433.16 717.27 2432.36 706.44C2432.17 703.73 2431.96 701.01 2431.75 698.28L2431.59 696.23L2431.52 695.21C2431.52 695.29 2431.51 694.83 2431.47 694.99L2431.41 694.48C2431.41 694.48 2431.34 693.98 2431.27 693.81L2431.14 693.43C2431 693.06 2430.89 692.7 2430.7 692.37C2429.3 689.64 2426.38 687.96 2423.59 688.24C2412.58 688.58 2401.58 688.79 2390.74 688.73C2379.91 688.79 2369.24 688.52 2358.92 688.44L2357.95 688.43L2357.47 688.42C2357.47 688.42 2357.27 688.42 2357.14 688.42C2356.58 688.44 2355.78 688.45 2355.85 688.51C2355.77 688.5 2355.47 688.57 2355.15 688.65C2354.85 688.73 2354.55 688.82 2354.27 688.95C2353.13 689.42 2352.13 690.25 2351.39 691.25C2350.68 692.27 2350.21 693.42 2350.08 694.67L2350.02 695.17L2349.99 696.08L2349.91 697.88C2349.84 699.08 2349.78 700.27 2349.71 701.45C2349.15 710.92 2348.6 719.86 2348.1 728.12C2347.55 736.38 2347.04 743.94 2346.58 750.65C2346.39 754.01 2346.19 757.15 2346.01 760.05C2345.72 762.94 2345.99 764.86 2346.83 766.77C2348.47 770.54 2351.61 772.32 2353.66 773.01C2354.72 773.36 2355.57 773.51 2356.15 773.56C2356.73 773.61 2357.03 773.64 2357.03 773.64C2357.03 773.64 2362.53 773.75 2372.17 773.94ZM2357.14 688.42C2357.21 688.42 2357.28 688.41 2357.34 688.41C2357.46 688.41 2356.75 688.42 2357.1 688.42C2357.11 688.42 2357.13 688.42 2357.14 688.42Z" />
		<path id="Path 20" class="shp13" d="M2336.77 705.38L2366.67 825.91L2338.58 828.21L2328.69 703.06L2336.77 705.38Z" />
		<path id="Path 21" class="shp10" d="M2308.71 703.06C2317.77 686.27 2341.23 686.27 2343.33 704.12L2356.34 675.09L2296.55 675.09L2308.71 703.06Z" />
		<path id="Path 22" class="shp14" d="M2396.19 885.08C2401.8 867.22 2410.93 826.76 2350.04 836.39C2303.2 843.81 2286.05 813.04 2209.86 847.87C2164.94 868.42 2191.22 945.57 2203.49 965.69C2242.29 1029.34 2345.02 1014.73 2362.65 994.19C2380.28 973.64 2388.77 908.66 2396.19 885.08Z" />
		<path id="Path 23" class="shp15" d="M2112.24 724.45C2112.24 724.45 2077 705.32 2066.12 708.04C2056.23 710.5 2032.9 728.07 2037.56 737.14C2052.23 765.64 2065.87 775.35 2085.55 803.85C2088.73 808.45 2103.05 803.85 2107.69 800.73C2112.28 797.64 2118.82 781.57 2118.82 781.57L2112.24 724.45Z" />
		<path id="Path 24" class="shp16" d="M2108.11 762.84C2094.48 764.18 2098.41 770.18 2099.55 775.35C2100.69 780.53 2089.83 783.95 2085.28 781.1C2080.72 778.25 2060.42 753.56 2062.76 737.14C2067.95 700.81 2113.36 762.32 2108.11 762.84Z" />
		<path id="Path 25" class="shp17" d="M2237.46 860.46C2237.46 860.46 2297.34 899.38 2343.31 885.66C2340.45 899.83 2300.72 911.48 2294.63 909.48C2277.81 903.96 2246.94 876.35 2237.46 860.46Z" />
		<path id="Path 26" class="shp18" d="M2372.2 1160.03C2418.98 1162.76 2485.03 1247.6 2506.47 1285.65C2544.31 1352.77 2606.33 1761.54 2600.13 1887.28C2598.89 1912.31 2498.64 1906.84 2482.34 1886.76C2335.06 1705.17 2260.56 1333.11 2275.65 1228.41C2279.3 1203.01 2343.85 1158.37 2372.2 1160.03Z" />
		<path id="Path 27" class="shp19" d="M2246.4 1122.77C2263.24 1120.96 2292.09 1082.48 2306.49 1091.43C2356.96 1122.77 2455.96 1190.54 2469.31 1239.48C2521.98 1432.4 2402.84 1775.8 2328.46 2180.01C2325.25 2197.43 2275.56 2174.36 2257.85 2174.36C2240.15 2174.36 2165.98 2202.99 2159.47 2186.52C2030.89 1861.06 1836.02 1505.2 1955.28 1213.15C1968.83 1179.95 2078.17 1122.77 2149.3 1096.18C2172.87 1087.36 2221.36 1125.45 2246.4 1122.77Z" />
		<path id="Path 28" class="shp20" d="M2475.52 3736.78C2467.08 3763.39 2436.89 3782.4 2464.75 3783.29C2514.96 3784.91 2616.74 3815.34 2618.26 3806.38C2619.89 3796.82 2501.56 3780.29 2495.81 3752.82C2491.48 3732.15 2472.71 3648.72 2472.97 3691.04C2473.23 3733.36 2475.52 3736.78 2475.52 3736.78ZM1878.98 3714.77C1868.66 3740.7 1855.63 3748.73 1885.1 3766.53C1942.04 3800.91 1978.42 3803.32 1978.42 3794.23C1978.42 3784.53 1909.07 3771.84 1898.85 3726.77C1894.2 3706.22 1898.02 3618.99 1888.97 3666.23C1881.29 3706.28 1881.32 3708.87 1878.98 3714.77Z" />
		<path id="Path 29" class="shp21" d="M2147.02 1054.18L2106.64 1114.52L2226.59 1172.59L2246.4 1122.77L2147.02 1054.18ZM2303.62 1068.68L2246.4 1122.77L2272.98 1172.59L2334.38 1109.36L2303.62 1068.68Z" />
		<path id="Path 30" class="shp22" d="M2264.23 1156.19L2260.23 1184.14L2240.91 1184.14L2233.11 1156.19L2246.4 1122.77L2264.23 1156.19ZM2257.06 1184.14C2257.06 1184.14 2328.69 1496.51 2287.54 1822.6C2285.94 1835.29 2240.52 1811.83 2242.06 1799.14C2264.23 1617.6 2246.4 1184.14 2246.4 1184.14L2257.06 1184.14Z" />
		<path id="Path 31" class="shp23" d="M2070.14 1133.16C2157.19 1301.23 2224.96 1516.4 2213.01 2016.15C2212.95 2018.86 2202.16 2018.86 2202.13 2016.15C2197.86 1721.06 2155.24 1382.98 2052.34 1143.08C2050.53 1138.86 2070.14 1133.16 2070.14 1133.16ZM2375.2 1132.09C2425.48 1317.81 2467.32 1516.4 2331.89 2013.28C2331.17 2015.91 2320.7 2013.71 2321.22 2011.04C2377.71 1721.37 2405.42 1378.69 2354.02 1122.77C2353.11 1118.26 2375.2 1132.09 2375.2 1132.09Z" />
		<path id="Path 32" class="shp24" d="M2055.79 1160.04C2055.79 1160.04 1995.59 1158.12 1946.41 1198.51C1813.84 1307.33 1686.64 1602.58 1686.43 1734.25C1686.4 1755.51 1825.01 1854.61 1840.8 1837.61C1951.32 1718.59 2040.71 1455.18 2065.57 1339.62C2072.83 1305.86 2055.79 1160.04 2055.79 1160.04Z" />
		<g id="Mask" clip-path="url(#cp2)">
			<path id="Path 34" class="shp25" d="M2612.85 1947.91L2133.3 1947.91L2133.3 3785.15L2612.85 3785.15L2612.85 1947.91ZM2151.94 2389.21C2109.74 2512.13 2123.21 2628.12 2182.02 2648.32C2240.82 2668.51 2322.71 2585.24 2364.91 2462.32C2407.1 2339.41 2393.64 2223.4 2334.83 2203.21C2276.02 2183.02 2194.14 2266.29 2151.94 2389.21Z" />
			<path id="Path 35" class="shp26" d="M2160.81 2392.25C2122.14 2504.93 2134.48 2611.27 2188.39 2629.77C2242.29 2648.28 2317.35 2571.95 2356.03 2459.27C2394.72 2346.6 2382.38 2240.26 2328.46 2221.75C2274.55 2203.24 2199.49 2279.58 2160.81 2392.25Z" />
			<path id="Path 36" class="shp27" d="M2169.69 2395.3C2134.52 2497.73 2145.74 2594.41 2194.75 2611.23C2243.76 2628.05 2312 2558.66 2347.16 2456.23C2382.32 2353.8 2371.1 2257.13 2322.09 2240.3C2273.08 2223.47 2204.85 2292.86 2169.69 2395.3Z" />
			<path id="Path 37" class="shp28" d="M2178.56 2398.34C2146.91 2490.53 2157.01 2577.54 2201.11 2592.68C2245.23 2607.82 2306.64 2545.36 2338.28 2453.18C2369.94 2360.99 2359.83 2273.99 2315.73 2258.84C2271.61 2243.7 2210.21 2306.16 2178.56 2398.34Z" />
			<path id="Path 38" class="shp29" d="M2187.44 2401.4C2159.3 2483.33 2168.28 2560.68 2207.49 2574.14C2246.69 2587.59 2301.28 2532.07 2329.42 2450.14C2357.54 2368.19 2348.56 2290.85 2309.36 2277.4C2270.16 2263.93 2215.56 2319.45 2187.44 2401.4Z" />
			<path id="Path 39" class="shp30" d="M2196.3 2404.44C2171.69 2476.14 2179.55 2543.81 2213.85 2555.58C2248.16 2567.36 2295.93 2518.79 2320.54 2447.08C2345.16 2375.39 2337.3 2307.72 2302.99 2295.94C2268.69 2284.16 2220.93 2332.74 2196.3 2404.44Z" />
			<path id="Path 40" class="shp31" d="M2205.18 2407.48C2184.08 2468.94 2190.81 2526.95 2220.22 2537.04C2249.62 2547.14 2290.56 2505.5 2311.67 2444.04C2332.76 2382.58 2326.03 2324.58 2296.63 2314.48C2267.22 2304.39 2226.28 2346.03 2205.18 2407.48Z" />
			<path id="Path 41" class="shp32" d="M2214.05 2410.53C2196.47 2461.75 2202.08 2510.08 2226.58 2518.5C2251.09 2526.91 2285.21 2492.21 2302.79 2441C2320.38 2389.78 2314.76 2341.44 2290.26 2333.03C2265.75 2324.61 2231.64 2359.31 2214.05 2410.53Z" />
			<path id="Path 42" class="shp33" d="M2222.93 2413.57C2208.86 2454.55 2213.35 2493.22 2232.96 2499.95C2252.56 2506.68 2279.85 2478.92 2293.92 2437.95C2307.99 2396.98 2303.49 2358.3 2283.9 2351.57C2264.29 2344.84 2236.99 2372.6 2222.93 2413.57Z" />
			<path id="Path 43" class="shp34" d="M2231.8 2416.62C2221.25 2447.35 2224.61 2476.35 2239.32 2481.41C2254.02 2486.45 2274.49 2465.64 2285.04 2434.91C2295.59 2404.18 2292.23 2375.17 2277.52 2370.13C2262.82 2365.07 2242.35 2385.9 2231.8 2416.62Z" />
			<path id="Path 44" class="shp35" d="M2240.68 2419.67C2233.65 2440.16 2235.89 2459.49 2245.69 2462.85C2255.49 2466.22 2269.14 2452.34 2276.17 2431.85C2283.21 2411.36 2280.96 2392.03 2271.16 2388.67C2261.35 2385.3 2247.71 2399.19 2240.68 2419.67Z" />
			<path id="Path 45" class="shp36" d="M2249.55 2422.72C2246.03 2432.96 2247.16 2442.63 2252.05 2444.31C2256.96 2445.99 2263.78 2439.05 2267.29 2428.81C2270.81 2418.56 2269.69 2408.9 2264.79 2407.22C2259.89 2405.53 2253.06 2412.47 2249.55 2422.72Z" />
		</g>
		<path id="Path 47" class="shp25" d="M2109.25 2026.29C2109.25 2026.29 1946.15 2114.05 1983.65 2279.82C1994.34 2327.1 1968.89 2783.61 1974.8 2888.08C1781.5 3120.83 1917.14 3343.79 1867.01 3741.14C1888.94 3766.15 1909.51 3760.57 1927.77 3760.57C1929.27 3707.67 1954.76 3489.24 1968.77 3412.09C2046.42 2984.85 2068.69 2957.3 2095.92 2926.62C2123.16 2895.95 2290.47 2330.91 2319.41 2127.54C2347.48 1930.19 2109.25 2026.29 2109.25 2026.29Z" />
		<path id="Path 48" class="shp37" d="M2333.96 2029.38C2338.04 2052.98 2330.33 2164.1 2318.44 2226.49C2317 2234.06 2300.4 2201.14 2300.4 2201.14L2300.86 2038.46C2300.86 2038.46 2332.54 2021.17 2333.96 2029.38Z" />
		<path id="Path 49" class="shp38" d="M2378.04 1974.41L2379.48 2033.42L2087.07 2050.34L2076.43 1983.6L2378.04 1974.41Z" />
		<path id="Path 50" class="shp25" d="M1879.83 3730.89C1893.53 3578.53 1881.98 3027.67 2020.23 2911.74C2030.5 2855.44 2096.75 2497.73 2096.75 2391.9L2011.4 2369.68C2011.4 2369.68 1983.65 2772.71 1974.8 2888.08C1910.73 2925.84 1853.73 2951.5 1843.22 3034.58C1828.23 3153 1888.87 3500.33 1867.01 3741.14C1879.64 3753.43 1879.83 3740.82 1879.83 3730.89Z" />
		<g id="Mask" clip-path="url(#cp3)">
			<path id="Path 52" class="shp25" d="M2017.4 2724.15C1988.2 2887.1 1991.01 3023.95 2023.67 3029.8C2056.33 3035.65 2106.47 2908.29 2135.67 2745.33L2103.59 2745.33L2103.59 2439.68L2129.39 2439.68C2096.72 2433.82 2046.58 2561.19 2017.4 2724.15Z" />
			<path id="Path 53" class="shp26" d="M2022.32 2725.02C1995.56 2874.41 1998.14 2999.84 2028.07 3005.21C2058.01 3010.57 2103.98 2893.82 2130.74 2744.45L2103.59 2744.45L2103.59 2464.26L2124.98 2464.26C2095.04 2458.9 2049.07 2575.65 2022.32 2725.02Z" />
			<path id="Path 54" class="shp27" d="M2027.25 2725.91C2002.92 2861.71 2005.26 2975.75 2032.48 2980.63C2059.7 2985.5 2101.48 2879.36 2125.8 2743.56L2103.59 2743.56L2103.59 2488.85L2120.57 2488.85C2093.35 2483.97 2051.57 2590.1 2027.25 2725.91Z" />
			<path id="Path 55" class="shp28" d="M2032.18 2726.79C2010.28 2849.01 2012.39 2951.65 2036.89 2956.03C2061.38 2960.42 2098.99 2864.9 2120.88 2742.68L2103.59 2742.68L2103.59 2513.44L2116.17 2513.44C2091.68 2509.05 2054.07 2604.57 2032.18 2726.79Z" />
			<path id="Path 56" class="shp29" d="M2037.1 2727.68C2017.65 2836.31 2019.52 2927.54 2041.29 2931.45C2063.06 2935.34 2096.49 2850.44 2115.95 2741.8L2103.59 2741.8L2103.59 2538.03L2111.76 2538.03C2089.99 2534.12 2056.56 2619.03 2037.1 2727.68Z" />
			<path id="Path 57" class="shp30" d="M2042.03 2728.55C2025 2823.61 2026.65 2903.45 2045.7 2906.85C2064.75 2910.27 2093.99 2835.97 2111.02 2740.92L2103.59 2740.92L2103.59 2562.61L2107.35 2562.61C2088.31 2559.2 2059.06 2633.5 2042.03 2728.55Z" />
			<path id="Path 58" class="shp31" d="M2046.96 2729.44C2032.36 2810.92 2033.77 2879.34 2050.09 2882.27C2066.43 2885.19 2091.5 2821.51 2106.09 2740.03C2120.69 2658.55 2119.28 2590.12 2102.96 2587.21C2086.63 2584.28 2061.55 2647.96 2046.96 2729.44Z" />
			<path id="Path 59" class="shp32" d="M2051.89 2730.32C2039.72 2798.22 2040.9 2855.24 2054.5 2857.68C2068.11 2860.11 2089 2807.05 2101.17 2739.15C2113.33 2671.25 2112.16 2614.23 2098.55 2611.79C2084.94 2609.35 2064.05 2662.42 2051.89 2730.32Z" />
			<path id="Path 60" class="shp33" d="M2056.81 2731.21C2047.08 2785.52 2048.02 2831.14 2058.91 2833.09C2069.79 2835.04 2086.51 2792.58 2096.24 2738.27C2105.97 2683.95 2105.03 2638.33 2094.15 2636.39C2083.26 2634.43 2066.54 2676.89 2056.81 2731.21Z" />
			<path id="Path 61" class="shp34" d="M2061.74 2732.08C2054.45 2772.82 2055.15 2807.04 2063.31 2808.5C2071.48 2809.97 2084.01 2778.12 2091.31 2737.39C2098.6 2696.65 2097.91 2662.44 2089.74 2660.97C2081.57 2659.51 2069.04 2691.34 2061.74 2732.08Z" />
			<path id="Path 62" class="shp35" d="M2066.67 2732.97C2061.8 2760.12 2062.27 2782.94 2067.72 2783.92C2073.16 2784.89 2081.52 2763.66 2086.39 2736.5C2091.25 2709.34 2090.78 2686.53 2085.33 2685.56C2079.9 2684.58 2071.53 2705.81 2066.67 2732.97Z" />
			<path id="Path 63" class="shp36" d="M2071.6 2733.85C2069.17 2747.43 2069.4 2758.83 2072.12 2759.32C2074.84 2759.81 2079.02 2749.2 2081.46 2735.61C2083.89 2722.04 2083.66 2710.64 2080.93 2710.15C2078.21 2709.66 2074.03 2720.27 2071.6 2733.85Z" />
		</g>
		<g id="Mask" clip-path="url(#cp4)">
			<path id="Path 66" class="shp25" d="M2132.62 2144.16L2020.99 2144.16L2020.99 2363.58L2132.62 2363.58L2132.62 2144.16ZM2070.8 2251.85C2049.75 2325.8 2061.66 2395.05 2097.37 2406.51L2097.37 2370.43L2139.47 2370.43L2139.47 2138.71L2173.6 2138.71C2137.88 2127.25 2091.85 2177.91 2070.8 2251.85Z" />
			<path id="Path 67" class="shp39" d="M2076.2 2253.58C2056.9 2321.37 2067.8 2384.84 2100.55 2395.35L2100.55 2370.43L2139.47 2370.43L2139.47 2149.86L2170.43 2149.86C2137.68 2139.36 2095.49 2185.79 2076.2 2253.58Z" />
			<path id="Path 68" class="shp28" d="M2081.58 2255.31C2064.04 2316.94 2073.96 2374.65 2103.73 2384.2C2118.61 2388.97 2135.65 2380.81 2151.15 2363.75L2139.47 2363.75L2139.47 2161.03L2167.25 2161.03C2137.48 2151.47 2099.13 2193.69 2081.58 2255.31Z" />
			<path id="Path 69" class="shp30" d="M2086.98 2257.04C2071.19 2312.51 2080.11 2364.44 2106.91 2373.04C2133.7 2381.64 2168.22 2343.65 2184.01 2288.18L2139.47 2288.18L2139.47 2172.19L2164.07 2172.19C2137.28 2163.58 2102.76 2201.58 2086.98 2257.04Z" />
			<path id="Path 70" class="shp40" d="M2092.36 2258.77C2078.33 2308.07 2086.26 2354.24 2110.08 2361.88C2133.9 2369.52 2164.58 2335.75 2178.61 2286.45L2139.47 2286.45L2139.47 2183.34L2160.9 2183.34C2137.08 2175.7 2106.4 2209.47 2092.36 2258.77Z" />
			<path id="Path 71" class="shp32" d="M2097.75 2260.5C2085.48 2303.65 2092.42 2344.03 2113.26 2350.72C2134.09 2357.41 2160.95 2327.86 2173.23 2284.72L2139.47 2284.72L2139.47 2194.5L2157.72 2194.5C2136.89 2187.81 2110.03 2217.36 2097.75 2260.5Z" />
			<path id="Path 72" class="shp33" d="M2103.15 2262.23C2092.63 2299.21 2098.57 2333.83 2116.44 2339.56C2134.29 2345.29 2157.31 2319.97 2167.83 2282.99L2139.47 2282.99L2139.47 2205.67L2154.54 2205.67C2136.69 2199.93 2113.67 2225.26 2103.15 2262.23Z" />
			<path id="Path 73" class="shp34" d="M2108.54 2263.96C2099.77 2294.78 2104.73 2323.63 2119.61 2328.41C2134.5 2333.18 2153.68 2312.07 2162.45 2281.26L2139.47 2281.26L2139.47 2216.82L2151.38 2216.82C2136.49 2212.04 2117.31 2233.15 2108.54 2263.96Z" />
			<path id="Path 74" class="shp35" d="M2113.93 2265.7C2106.91 2290.34 2110.87 2313.43 2122.78 2317.25C2134.7 2321.07 2150.04 2304.19 2157.05 2279.53L2139.47 2279.53L2139.47 2227.98L2148.2 2227.98C2136.28 2224.16 2120.95 2241.04 2113.93 2265.7Z" />
			<path id="Path 75" class="shp41" d="M2119.31 2267.43C2114.05 2285.91 2117.03 2303.22 2125.96 2306.08C2134.9 2308.96 2146.4 2296.29 2151.67 2277.8L2139.47 2277.8L2139.47 2239.14L2145.02 2239.14C2136.08 2236.27 2124.58 2248.94 2119.31 2267.43Z" />
			<path id="Path 76" class="shp36" d="M2124.71 2269.16C2121.2 2281.48 2123.19 2293.02 2129.14 2294.93C2135.09 2296.84 2142.76 2288.4 2146.27 2276.07L2139.47 2276.07L2139.47 2250.29L2141.84 2250.29C2135.89 2248.39 2128.22 2256.82 2124.71 2269.16ZM2130.1 2270.89C2128.34 2277.04 2129.33 2282.81 2132.31 2283.77C2135.29 2284.73 2139.13 2280.5 2140.89 2274.34C2142.64 2268.18 2141.65 2262.41 2138.67 2261.46C2135.69 2260.5 2131.85 2264.72 2130.1 2270.89Z" />
		</g>
		<path id="Path 78" class="shp42" d="M2699.07 1626.75L2713.06 2179.89L2378.2 2235.64L2242.69 2206.05L2094.82 1635.46L2699.07 1626.75Z" />
		<path id="Path 79" class="shp43" d="M2293.85 1632.59L2378.2 2235.64L2229.81 2234.7L2094.82 1635.46L2293.85 1632.59Z" />
		<path id="Path 80" class="shp44" d="M2535.1 1629.11L2582.38 2201.65L2535.31 2209.48L2436.2 1630.54L2535.1 1629.11Z" />
		<path id="Path 81" class="shp45" d="M2224.3 1633.59L2316.48 2235.25L2267.41 2234.94L2140.87 1631.91L2224.3 1633.59Z" />
		<path id="Path 82" fill-rule="evenodd" class="shp46" d="M2182.34 1372.41C2229.95 1306.66 2386.36 1493.41 2405.03 1630.99L2183.92 1632.78C2183.92 1632.78 2134.75 1438.16 2182.34 1372.41ZM2287.05 1603.75C2301.15 1612.09 2395.28 1610.91 2395.28 1610.91C2333.22 1521.01 2261.77 1463.3 2253 1466.41C2244.24 1469.5 2272.96 1595.42 2287.05 1603.75Z" />
		<path id="Path 83" fill-rule="evenodd" class="shp47" d="M2556.75 1341.55C2579.95 1334.89 2561.28 1628.73 2561.28 1628.73L2405.03 1630.99C2412.34 1462.75 2533.54 1348.22 2556.75 1341.55ZM2501.56 1478.75C2496.44 1445.53 2433.33 1532.99 2407.88 1598.7C2407.88 1598.7 2477.4 1605.48 2493.11 1590.96C2513.78 1571.88 2506.68 1511.98 2501.56 1478.75Z" />
		<path id="Path 84" class="shp48" d="M2436.02 1628.43L2384.99 1632.65L2377.41 1540.83L2428.45 1536.62L2436.02 1628.43Z" />
		<path id="Path 85" class="shp49" d="M1658.5 625.87C1639.21 603.77 1576.61 622.82 1601.1 669.52C1523.61 712.21 1566.06 818.79 1624.7 820.8C1611.89 856.82 1668.21 887 1672.35 851.12C1748.83 924.66 1938.46 801.37 1839.5 693.87C1852.59 653.85 1809.18 621.73 1785.9 636.45C1793.22 586.74 1737.74 586.37 1728.65 608.05C1708.02 574.65 1651.31 579.27 1658.5 625.87Z" />
		<path id="Path 86" class="shp50" d="M1926.79 1342.41L1807.07 1337.53L1768.63 1091.75L1898.84 1153.65L1926.79 1342.41Z" />
		<path id="Path 87" class="shp51" d="M1887.36 1774.3L1748.57 1345.16L1860.41 1249.2L1935.3 1294.75L1972.69 1323.56L1957.36 1894.76L1887.36 1774.3Z" />
		<path id="Path 88" class="shp52" d="M1797.95 2051.6C1927.46 2039.12 2009.49 1956.53 2009.49 1956.53C2062.81 2015.58 2121.19 2152.6 2121.79 2213.5C2125.19 2557.79 1982.35 2910.91 1966.43 2938.24C1918.92 3019.83 1836.88 3536.58 1849.61 3711.65C1850.23 3720.11 1844.84 3718.57 1839.7 3711.82C1826.08 3470.78 1727.44 3321.04 1733.36 3130.68C1736.46 3031.14 1787.08 2944.52 1833.49 2910.72C1876.1 2879.68 1833.11 2351.21 1797.95 2051.6Z" />
		<path id="Path 89" class="shp53" d="M1578.15 2534.36C1680.96 2582.71 1805.52 2597.82 1871.86 2649.83C1798.16 2488.47 1665.07 2200.46 1691.45 2104.86C1710.48 2035.87 1893.73 1958.48 1893.73 1958.48C1970.01 1956.2 1917.72 1963.81 1989.95 1956.85C2073.09 2315.82 2086.79 2870.13 2054.1 2929.36C1983.9 3056.59 1694.39 2593.78 1525.14 2526.38C1491.28 2512.89 1544.48 2518.53 1578.15 2534.36Z" />
		<path id="Path 90" class="shp54" d="M1539.01 2490.61C1534.25 2478.32 1506.9 2495.71 1481.11 2482.67C1440.13 2461.93 1427.67 2438.1 1423.05 2441.81C1413.52 2449.49 1481.09 2521.03 1520.63 2524.45C1534.73 2524.46 1516.83 2524.2 1523.33 2518.54C1530.94 2511.92 1542.4 2499.34 1539.01 2490.61ZM1812.14 3719.07C1805.28 3730.32 1835.35 3734.23 1841.06 3769.85C1845.68 3798.71 1895.45 3796.94 1895.4 3785.82C1895.39 3781.05 1838.73 3800.2 1850.18 3713.08C1847.75 3710.73 1817.01 3711.07 1812.14 3719.07Z" />
		<path id="Path 91" class="shp51" d="M2015.23 947.36C2029.83 966.05 2049.25 963.67 2055.11 982.15C2082.21 1067.52 2010.86 1194.66 1975.35 1206.45C1943.3 1217.09 1851.08 1206.15 1787 1149.78C1764.72 1130.19 1737.86 1103.78 1728.77 1077.59C1696.51 1024.08 1682.16 949.17 1688 897.28C1695.94 826.82 1888.81 750.56 1900.83 760.73C1927.22 783.05 1991.57 841.56 2006.34 868.71C2012.04 879.2 2011.23 917.85 2015.23 947.36Z" />
		<path id="Path 92" class="shp55" d="M1914.76 942.36C1950.71 1062.43 2027.29 1002.4 1990.98 1046.84C1985.51 1053.34 1974.77 1060.68 1962.53 1063.03C1983.35 1051.19 1991.28 1029.08 1991.92 1033.13C1996.77 1034.9 1927.32 1034.39 1914.76 942.36Z" />
		<path id="Path 93" class="shp56" d="M1866.83 808.22C1881.31 799.56 1912.95 774.29 1920.83 780.16C1940.82 795.06 1969.34 823.66 1975.37 830.1C1981.41 836.54 1968.65 785.82 1922.1 740.96C1871.68 692.36 1848.2 707.53 1835.42 713.58C1830.19 716.06 1798.85 730.91 1780.2 741.96C1735.19 741.97 1677.18 761.86 1665.92 769.88C1646.88 783.45 1600.59 899.34 1608.99 924.63C1613.46 938.1 1638.31 991.74 1671.03 1043.36C1699.76 1088.69 1695.96 1038.55 1705.41 1027.83C1719.32 1012.04 1739.58 901.23 1744.8 843.67C1747.52 813.72 1856.13 814.63 1866.83 808.22Z" />
		<path id="Path 94" class="shp51" d="M1689.66 1012.34C1656.23 992.29 1647.55 1020.63 1652.68 1033.37C1657.79 1046.13 1729.7 1111.44 1728.41 1076.78C1727.13 1042.12 1689.66 1012.34 1689.66 1012.34Z" />
		<path id="Path 95" class="shp57" d="M1786.53 754.31C1659.8 768.32 1666.19 791.71 1644.68 913.55C1677.76 815.84 1672.05 777.92 1786.53 754.31ZM1788.11 771.38C1697.18 791.97 1697.84 802.41 1669.29 891.89C1698.3 826.26 1701.61 798.1 1788.11 771.38ZM1805.95 746.63C1879.67 703.34 1885.6 718.47 1946.03 775.31C1889.06 736.08 1876.93 713.41 1805.95 746.63ZM1813.17 760.12C1865.39 735.41 1876.25 732.35 1924.11 773.55C1882.21 749.91 1870.35 739.79 1813.17 760.12Z" />
		<path id="Path 96" class="shp55" d="M1878.07 1111.71C1878.07 1111.71 1953.95 1124.57 1998.84 1088.25C1993.31 1116.88 1969.12 1141.77 1961.91 1142.55C1942.02 1144.72 1895.25 1123.65 1878.07 1111.71Z" />
		<path id="Path 97" class="shp17" d="M1878.07 1111.71C1878.07 1111.71 1953.95 1124.57 1998.84 1088.25C1993.44 1110.34 1960.26 1124.88 1953.04 1125.67C1933.16 1127.82 1895.25 1123.65 1878.07 1111.71Z" />
		<path id="Path 98" class="shp58" d="M1936.85 900.66C1951.45 878.55 1969.76 866.06 1996.13 866.67L1996.91 859.27C1966.82 855.65 1944.05 868.11 1924.85 891.87L1936.85 900.66ZM1863.18 907.67C1844.49 904.9 1830.73 904.07 1807.86 912.25C1795 916.83 1772.79 931.21 1763.25 944.53L1769.26 948.9C1783.92 931.18 1817.4 912.78 1860.5 922.3L1863.18 907.67ZM1814.02 1019.21C1822.19 1005.89 1838.23 995.6 1855.88 992.36C1869.54 989.85 1881.84 991.85 1889.65 997.87L1894.3 991.83C1884.79 984.49 1870.3 981.94 1854.5 984.86C1834.49 988.54 1816.93 999.89 1807.53 1015.23L1814.02 1019.21ZM1943.3 971.89C1949.19 959.64 1962.34 949.71 1977.64 945.98C1989.29 943.14 1999.96 944.51 2006.91 949.73L2011.49 943.64C2002.71 937.03 1989.71 935.18 1975.83 938.57C1958.38 942.83 1943.28 954.33 1936.43 968.59L1943.3 971.89Z" />
		<path id="Path 99" fill-rule="evenodd" class="shp59" d="M1858.63 1057.14C1815.17 1057.13 1757.01 1007.4 1746.67 988.04C1817.33 987.61 1907.06 959.9 1907.06 959.9C1911.57 1033.5 1888.6 1057.15 1858.63 1057.14ZM1867 983.68C1862.98 983.68 1858.79 984.07 1854.5 984.86C1834.49 988.54 1816.93 999.89 1807.53 1015.23L1814.02 1019.21C1822.19 1005.89 1838.23 995.6 1855.88 992.36C1859.73 991.65 1863.48 991.3 1867.05 991.3C1876.14 991.3 1884.05 993.55 1889.65 997.87L1894.3 991.83C1887.38 986.48 1877.8 983.68 1867 983.68Z" />
		<path id="Path 100" class="shp60" d="M1814.02 1019.21L1807.53 1015.23C1816.93 999.89 1834.49 988.54 1854.5 984.86C1858.79 984.07 1862.98 983.68 1867 983.68C1877.8 983.68 1887.38 986.48 1894.3 991.83L1889.65 997.87C1884.05 993.55 1876.14 991.3 1867.05 991.3C1863.48 991.3 1859.73 991.65 1855.88 992.36C1838.23 995.6 1822.19 1005.89 1814.02 1019.21Z" />
		<path id="Path 101" class="shp61" d="M2028.62 959.28C2024.05 956.39 2019.44 952.75 2015.23 947.36C2013.39 933.78 2012.56 918.27 2011.66 904.46C2019.86 899.11 2027.05 893.95 2032.3 889.35C2035.5 905.61 2034.75 934.1 2028.62 959.28Z" />
		<path id="Path 102" fill-rule="evenodd" class="shp62" d="M1988.33 1009.69C1971.53 1009.69 1949.53 994.59 1921.41 954.24C1921.41 954.24 1976.14 927.6 2011.66 904.46C2012.56 918.27 2013.39 933.78 2015.23 947.36C2019.44 952.75 2024.05 956.39 2028.62 959.28C2022.03 986.41 2009.19 1009.69 1988.33 1009.69ZM1989.1 936.91C1984.85 936.91 1980.39 937.46 1975.83 938.57C1958.38 942.83 1943.28 954.33 1936.43 968.59L1943.3 971.89C1949.19 959.64 1962.34 949.71 1977.64 945.98C1981.62 945.01 1985.5 944.53 1989.15 944.53C1996.16 944.53 2002.33 946.3 2006.91 949.73L2011.49 943.64C2005.59 939.2 1997.79 936.91 1989.1 936.91Z" />
		<path id="Path 103" class="shp63" d="M1943.3 971.89L1936.43 968.59C1943.28 954.33 1958.38 942.83 1975.83 938.57C1980.39 937.46 1984.85 936.91 1989.1 936.91C1997.79 936.91 2005.59 939.2 2011.49 943.64L2006.91 949.73C2002.33 946.3 1996.16 944.53 1989.15 944.53C1985.5 944.53 1981.62 945.01 1977.64 945.98C1962.34 949.71 1949.19 959.64 1943.3 971.89Z" />
		<path id="Path 104" fill-rule="evenodd" class="shp64" d="M1746.64 982.96C1795.98 982.78 1859.48 970.01 1906.08 956.39C1908.32 955.77 1910.55 957.37 1910.7 959.68C1925.53 1195.4 1708.15 983 1746.64 982.96ZM1903.42 964.69C1857.19 978.53 1803.99 990.36 1756.01 992.65C1782.24 1025.22 1909.57 1124.5 1903.42 964.69Z" />
		<path id="Path 105" fill-rule="evenodd" class="shp65" d="M1926.98 955.48C1957.07 940.94 2001.93 918.26 2028.49 898.54C2033.86 950.12 2012.05 1072.58 1926.98 955.48ZM1918.17 955.89C1922.76 964.96 1960.32 1017.81 1988.93 1021.72C2045.36 1029.84 2048.14 881.14 2031.35 884.35C2003.19 907.04 1952.03 934.63 1919.81 950.97C1917.92 951.92 1917.28 954.14 1918.17 955.89Z" />
		<path id="Path 106" class="shp66" d="M1654.26 974.52C1652.47 974.62 1656.74 974.36 1656.31 974.39C1671.98 976.64 1706.98 985.01 1739.28 986.17C1739.28 986.17 1740.51 1004.17 1757.71 1017.97C1732.28 1023.8 1684.55 992 1657.78 985.16C1656.19 992.62 1655.45 1002.92 1653.48 1010.56C1649.2 1001.34 1643.83 978.17 1654.26 974.52Z" />
		<path id="Path 107" class="shp53" d="M2328.14 1928.46C2333.74 1925.02 2386.87 1966.2 2392.28 1957.23C2395.26 1952.29 2336.5 1919.96 2339.54 1912.55C2341.94 1906.74 2411.19 1945.79 2416.29 1935.44C2420.31 1927.31 2346.86 1903.49 2353.25 1896C2354.91 1894.06 2418.16 1899.99 2419.27 1894.02C2421.52 1882.01 2359.62 1885.35 2349.71 1878.83C2339.8 1872.32 2321.58 1849.36 2342.39 1848.35C2372.17 1846.91 2371.99 1827.15 2366.21 1831.16C2361.03 1834.76 2315.14 1834.55 2273.33 1857.21C2261.5 1863.61 2216.45 1869.02 2253.59 1874.26C2258.39 1874.94 2272.08 1891.26 2277.99 1898.29C2296.18 1919.96 2309.62 1920.65 2312.95 1931.51C2316.28 1942.43 2336.9 1975.5 2342.98 1970.98C2346.58 1968.3 2323.6 1931.24 2328.14 1928.46Z" />
		<path id="Path 108" class="shp67" d="M1697.46 2080.58C1733.51 2044.32 1811.57 1986.44 1879.67 1962.9C1878.73 1759.73 1810.53 1603.71 1746.01 1489.06C1697.7 1454.36 1669.16 1378.88 1700.18 1342.41C1711.22 1329.44 1768.63 1304.26 1792.45 1307.51C1810.68 1337.09 1906.2 1362.04 1943.08 1340C1966.91 1325.76 1943.02 1301.58 1935.3 1294.75C1953.16 1305.85 1993.81 1322.11 2003.67 1332.72C2030.22 1361.3 2034.98 1468.74 2034.98 1468.74C2034.98 1468.74 2089.53 1514.6 2092.2 1532.67C2098.3 1573.83 2037.03 1611.74 2037.03 1611.74C2037.03 1611.74 2071.18 1842.71 2023.52 1974.41C2169.32 2165.35 2141.44 2306.73 2079.61 2648.57C2026.83 2676.33 1912.48 2672.83 1847.44 2630.91C1845.52 2560.7 1614.01 2164.51 1697.46 2080.58Z" />
		<path id="Path 109" class="shp53" d="M1921.41 1682.36C1921.41 1682.36 1972.47 1851.41 1990.31 1871.5C2017.95 1902.62 2273.33 1857.21 2273.33 1857.21L2277.99 1898.29C2277.99 1898.29 2023.92 1993.8 1947.85 1958.66C1891.75 1932.73 1809.46 1737.69 1809.46 1737.69L1921.41 1682.36Z" />
		<path id="Path 110" class="shp68" d="M1700.18 1342.41C1805.86 1270.59 1914.76 1618.74 1926.79 1706.01C1886.34 1765.41 1813.22 1753.01 1813.22 1753.01C1813.22 1753.01 1609.92 1403.75 1700.18 1342.41Z" />
		<path id="Path 111" class="shp69" d="M1792.39 1774.29C1876.97 1798.03 1874.09 1912.04 1948.69 1940.56C1967.64 1947.8 1971.77 1971 1980.45 1980.61C1978.43 1980.93 1960.37 1982.97 1939.56 1980.61C1888.76 1974.88 1731.6 1936.17 1677.07 1863.41C1655.67 1834.84 1684.98 1762.95 1690.42 1741.16C1749.99 1790.45 1739.84 1759.54 1792.39 1774.29Z" />
		<path id="Path 112" class="shp70" d="M2744.39 1900.68C2742.96 1893.45 2707.82 1861.27 2693.89 1867.19C2690.01 1868.83 2691.92 1874.12 2696 1878.55C2701.05 1884.02 2717 1898.77 2717 1898.77C2717 1898.77 2690.55 1895.34 2685.02 1898.43C2679.8 1901.33 2676.35 1907.21 2679.26 1912.42C2682.78 1918.72 2706.27 1929.28 2706.27 1929.28C2706.27 1929.28 2676.21 1926.53 2674.82 1934.38C2673.02 1944.49 2710.65 1954.53 2710.65 1954.53C2710.65 1954.53 2689.64 1953.72 2687.06 1959.15C2685.48 1962.5 2691.48 1969.57 2694.08 1972.22C2699.14 1977.36 2716.22 1984.61 2721.84 1980.09C2726.42 1976.43 2746.35 1910.67 2744.39 1900.68Z" />
		<path id="Path 113" class="shp71" d="M1939.56 1980.61C1930.44 1962.47 1934 1924.81 1952.77 1911.55C1973.36 1897.01 1976.76 1888.59 1978.14 1884.56C1980.49 1877.7 1989.24 1885.35 1987.1 1895.09C1985.2 1903.82 1970.41 1923.16 1970.41 1923.16C1970.41 1923.16 2005.76 1925.08 2016.17 1920.27C2026.64 1915.43 2037.05 1884.07 2048.21 1887.03C2051.55 1887.91 2051.04 1897.43 2050.04 1900.73C2047.35 1909.51 2037.25 1925.55 2030.58 1931.85C2027.68 1934.59 2016.58 1939.52 2016.58 1939.52C2016.58 1939.52 2042.93 1938.84 2051.97 1935.63C2060.82 1932.48 2076.32 1911.44 2085.25 1915.35C2088.9 1916.95 2088.05 1924.69 2085.23 1928.21C2079.05 1935.92 2066.04 1945.18 2069.96 1943.42C2078.97 1939.34 2082.59 1938.74 2086.89 1943.37C2089.49 1946.19 2083.56 1955.64 2079.2 1957.85C2071.56 1961.74 2064.8 1967.36 2057.8 1969.42C2050.74 1971.49 2035.05 1975.34 2035.05 1975.34C2016.09 1981.69 1965.15 1982.95 1939.56 1980.61Z" />
	</g>
</svg>