<svg width="84" height="84" xmlns="http://www.w3.org/2000/svg" stroke="null" style="vector-effect: non-scaling-stroke;">

 <g stroke="null">
  <title stroke="null">background</title>
  <rect stroke="null" fill="none" id="canvas_background" height="86" width="86" y="-1" x="-1"/>
 </g>
 <g stroke="null">
  <title stroke="null">Layer 1</title>
  <path stroke="null" id="svg_2" fill="#4287f5" d="m40.89257,7.70133c-11.312616,0 -20.483201,8.967763 -20.483201,20.030181c0,3.557861 0.977049,6.885375 2.640285,9.779736c0.276267,0.480724 0.565848,0.953937 0.880266,1.409624l16.962651,28.871003l16.962651,-28.871003c0.261161,-0.37807 0.486476,-0.778673 0.719472,-1.174269l0.161305,-0.235355c1.6617,-2.894361 2.639773,-6.221875 2.639773,-9.779736c0,-11.062419 -9.171353,-20.030181 -20.483201,-20.030181zm0,10.015091c5.655924,0 10.241601,4.484006 10.241601,10.015091c0,5.530834 -4.585677,10.015091 -10.241601,10.015091c-5.65618,0 -10.241601,-4.484257 -10.241601,-10.015091c0,-5.531084 4.585421,-10.015091 10.241601,-10.015091z"/>
  <path stroke="null" id="svg_3" fill="#200122" d="m40.590558,15.38253c-7.070289,0 -12.802001,5.585226 -12.802001,12.474819c0,6.888595 5.731712,12.474819 12.802001,12.474819c7.069265,0 12.802001,-5.586224 12.802001,-12.474819c0,-6.889593 -5.732736,-12.474819 -12.802001,-12.474819zm0,4.989928c4.242583,0 7.681201,3.350986 7.681201,7.484892s-3.438617,7.484892 -7.681201,7.484892s-7.681201,-3.350986 -7.681201,-7.484892s3.438617,-7.484892 7.681201,-7.484892z"/>
  <text stroke="null" transform="matrix(0.9293968586785012,0,0,1,7.202232093644554,-0.40268391370773315) " xml:space="preserve" text-anchor="start" font-family="Helvetica, Arial, sans-serif" font-size="14" id="svg_5" y="17.214737" x="-3.866709" fill-opacity="null" stroke-opacity="null" stroke-width="0" fill="#000000"></text>
 </g>
</svg>